<?xml version="1.0" standalone="no"?>
<!DOCTYPE svg PUBLIC "-//W3C//DTD SVG 20010904//EN"
 "http://www.w3.org/TR/2001/REC-SVG-20010904/DTD/svg10.dtd">
<svg version="1.0" xmlns="http://www.w3.org/2000/svg"
 width="1920.000000pt" height="1920.000000pt" viewBox="0 0 1920.000000 1920.000000"
 preserveAspectRatio="xMidYMid meet">

<g transform="translate(0.000000,1920.000000) scale(0.100000,-0.100000)"
fill="#000000" stroke="none">
<path d="M9168 13890 c-622 -28 -1052 -132 -1528 -369 -371 -185 -690 -420
-1005 -742 -495 -505 -853 -1127 -1060 -1835 -130 -447 -189 -873 -189 -1359
1 -741 156 -1427 470 -2070 550 -1131 1521 -1919 2640 -2145 276 -55 393 -64
874 -64 453 -1 594 4 820 30 1152 130 2088 630 2737 1461 282 362 502 784 657
1259 316 973 310 2155 -16 3154 -248 760 -705 1423 -1293 1875 -463 355 -949
576 -1525 694 -453 92 -1060 135 -1582 111z m1388 -250 c43 -12 135 -41 204
-63 l125 -42 -111 -3 -111 -3 -134 60 c-74 32 -164 69 -201 82 -38 13 -68 27
-68 30 0 8 185 -30 296 -61z m-1016 -54 c380 -54 711 -158 1035 -325 320 -166
562 -341 829 -601 566 -551 953 -1263 1136 -2091 112 -509 133 -1122 54 -1654
-242 -1646 -1368 -2964 -2794 -3269 -250 -53 -326 -61 -640 -61 -317 1 -415
10 -650 61 -483 106 -941 328 -1345 650 -138 110 -445 416 -554 552 -509 635
-813 1381 -916 2252 -23 187 -31 611 -16 807 84 1103 524 2081 1249 2773 561
536 1220 844 1967 920 124 12 518 4 645 -14z m1936 -313 c79 -43 144 -81 144
-85 0 -5 -88 -8 -195 -8 l-196 0 -112 77 c-62 42 -116 80 -121 85 -6 4 68 8
163 8 l174 0 143 -77z m491 -315 c107 -82 143 -112 143 -120 0 -5 -107 -8
-237 -8 l-238 0 -87 81 c-49 44 -88 85 -88 90 0 5 93 9 219 9 l219 0 69 -52z
m419 -370 c33 -35 68 -73 78 -85 l19 -23 -269 1 -269 0 -50 61 c-27 33 -58 71
-68 84 l-19 24 259 0 259 0 60 -62z m292 -339 c26 -34 55 -74 65 -90 l19 -29
-280 0 -280 0 -56 80 c-31 44 -56 84 -56 90 0 7 91 10 270 10 l270 0 48 -61z
m252 -376 c25 -42 47 -81 48 -85 2 -4 -126 -8 -285 -8 l-289 0 -24 43 c-13 23
-34 61 -47 85 l-25 42 289 0 288 0 45 -77z m181 -348 c21 -47 39 -88 39 -90 0
-3 -131 -5 -291 -5 l-290 0 -35 76 c-19 41 -34 82 -34 90 0 12 43 14 286 14
l285 0 40 -85z m143 -353 c14 -42 26 -80 26 -85 0 -4 -132 -6 -292 -5 l-293 3
-27 75 c-15 41 -27 78 -27 83 -1 4 131 7 293 7 l294 0 26 -78z m100 -327 c9
-30 19 -68 22 -85 l7 -30 -294 2 -294 3 -22 83 -21 82 293 0 294 0 15 -55z
m70 -302 c7 -25 26 -134 26 -150 0 -11 -54 -13 -292 -11 l-293 3 -12 65 c-7
36 -12 75 -13 88 l0 22 289 0 c267 0 290 -1 295 -17z m60 -389 c3 -26 6 -64 6
-85 l0 -39 -289 0 -289 0 -7 68 c-4 37 -9 75 -11 85 -5 16 13 17 289 17 l294
0 7 -46z m-241 -304 l267 0 0 -85 0 -85 -290 0 -290 0 -1 48 c-1 26 -3 61 -5
77 -5 44 3 58 29 51 12 -3 142 -6 290 -6z m267 -435 l0 -85 -292 2 -293 3 1
33 c1 17 2 55 3 82 l1 50 290 0 290 0 0 -85z m-24 -342 c-4 -43 -11 -81 -15
-86 -4 -4 -135 -6 -292 -5 l-284 3 2 25 c1 14 4 51 8 83 l6 57 291 0 291 0 -7
-77z m-39 -295 c-3 -13 -11 -51 -18 -85 l-12 -63 -290 0 -290 0 7 43 c4 23 10
61 13 85 l6 42 294 0 295 0 -5 -22z m-92 -411 l-22 -82 -292 -3 c-275 -2 -292
-1 -287 15 3 10 12 45 21 78 9 33 18 65 19 70 2 6 106 9 294 7 l290 -3 -23
-82z m-85 -275 c0 -4 -13 -41 -29 -82 l-28 -75 -288 -3 c-228 -2 -286 0 -283
10 3 7 15 46 28 86 l24 72 288 0 c158 0 288 -3 288 -8z m-140 -349 c0 -4 -16
-42 -37 -85 l-36 -78 -279 0 c-185 0 -278 3 -278 10 0 6 14 44 32 85 l32 75
283 0 c156 0 283 -3 283 -7z m-180 -349 c0 -3 -21 -41 -47 -85 l-48 -79 -272
0 c-150 0 -273 2 -273 4 0 2 21 40 46 85 l45 81 275 0 c151 0 274 -3 274 -6z
m-282 -426 l-64 -83 -257 -3 c-141 -1 -257 1 -257 5 0 5 24 43 52 85 l53 78
268 0 268 0 -63 -82z m-308 -353 l-85 -85 -232 0 c-128 0 -233 2 -233 5 0 3
30 42 67 85 l66 80 251 0 251 0 -85 -85z m-310 -278 c-8 -7 -59 -45 -112 -84
l-97 -73 -198 0 -198 0 90 85 90 84 220 0 c174 0 217 -2 205 -12z m-550 -368
c-30 -17 -104 -55 -163 -85 l-108 -55 -125 3 -125 3 118 82 118 81 170 1 170
1 -55 -31z m-751 -323 c-7 -7 -244 -76 -260 -76 -8 0 22 18 66 39 64 31 92 39
139 40 33 1 57 -1 55 -3z"/>
<path d="M8928 13270 c-424 -36 -857 -177 -1233 -403 -771 -462 -1352 -1279
-1594 -2242 -268 -1068 -102 -2237 446 -3140 553 -911 1405 -1476 2358 -1565
848 -78 1682 239 2330 885 804 802 1207 2008 1080 3233 -82 796 -390 1542
-876 2122 -118 140 -338 356 -477 467 -422 339 -934 561 -1447 628 -148 19
-444 27 -587 15z m562 -274 c1046 -145 1939 -937 2349 -2086 98 -276 161 -554
203 -895 20 -169 17 -701 -5 -885 -115 -946 -545 -1782 -1197 -2328 -384 -321
-808 -520 -1285 -602 -153 -27 -464 -37 -626 -21 -891 87 -1680 628 -2179
1496 -253 438 -412 935 -476 1480 -32 272 -24 739 17 1010 103 679 357 1282
749 1775 100 126 362 391 480 484 219 174 530 351 775 442 191 70 446 125 685
148 84 8 405 -4 510 -18z"/>
<path d="M7509 10714 c-11 -13 -2 -38 64 -170 l77 -154 519 0 519 0 7 -22 c3
-13 9 -133 12 -268 5 -261 -6 -389 -44 -500 l-19 -53 -224 2 c-201 2 -232 0
-290 -18 -117 -36 -178 -111 -187 -226 -11 -136 106 -380 311 -650 246 -324
707 -764 1201 -1148 99 -76 91 -81 211 141 57 107 104 199 104 205 0 7 -33 30
-73 51 -345 188 -749 463 -995 680 -109 96 -210 202 -201 210 2 1 53 36 114
77 60 41 152 107 203 147 52 40 95 72 96 70 2 -2 11 -23 20 -48 68 -175 226
-329 410 -401 112 -44 250 -52 346 -19 175 59 310 185 369 344 26 70 39 51
-128 180 l-125 96 -27 -50 c-64 -116 -134 -192 -217 -234 -218 -110 -427 8
-409 229 9 115 67 210 170 276 105 68 239 96 378 78 310 -39 527 -260 815
-832 69 -137 99 -187 110 -183 27 10 164 107 164 115 0 5 -32 69 -71 143 -307
575 -532 865 -794 1020 -276 163 -589 152 -812 -29 l-43 -34 0 158 c0 150 -12
358 -26 451 l-6 42 924 0 c895 0 925 1 942 19 16 18 14 26 -58 170 l-76 151
-1624 0 c-1470 0 -1625 -2 -1637 -16z"/>
</g>
</svg>
